<?xml version="1.0" standalone="no"?><!DOCTYPE svg PUBLIC "-//W3C//DTD SVG 1.1//EN" "http://www.w3.org/Graphics/SVG/1.1/DTD/svg11.dtd"><svg t="1720073637069" class="icon" viewBox="0 0 1024 1024" version="1.1" xmlns="http://www.w3.org/2000/svg" p-id="3774" xmlns:xlink="http://www.w3.org/1999/xlink" width="32" height="32"><path d="M709.12 771.2m-202.453333 0a202.453333 202.453333 0 1 0 404.906666 0 202.453333 202.453333 0 1 0-404.906666 0Z" fill="#FF9FA2" opacity=".5" p-id="3775" data-spm-anchor-id="a313x.search_index.0.i10.3ddb3a81ucOHa9" class="selected"></path><path d="M852.906667 982.4H171.093333c-41.173333 0-74.666667-33.493333-74.666666-74.666667V324.48c0-25.813333 13.653333-50.133333 35.626666-63.573333l340.906667-208.213334c24.106667-14.72 53.76-14.72 77.866667 0l340.906666 208.213334c21.973333 13.44 35.626667 37.76 35.626667 63.573333v583.253333c0 41.173333-33.493333 74.666667-74.453333 74.666667zM506.453333 107.306667L165.76 315.52a10.453333 10.453333 0 0 0-5.12 8.96v583.253333c0 5.76 4.693333 10.666667 10.666667 10.666667h681.6c5.76 0 10.666667-4.693333 10.666666-10.666667V324.48a10.453333 10.453333 0 0 0-5.12-8.96L517.546667 107.306667c-3.413333-2.133333-7.68-2.133333-11.093334 0z" p-id="3776" data-spm-anchor-id="a313x.search_index.0.i8.3ddb3a81ucOHa9" class="" fill="#b3bff2"></path><path d="M512 662.613333l-106.24-93.013333A32.064 32.064 0 0 1 448 521.386667l64 56.32 64.213333-56.106667a32.085333 32.085333 0 0 1 42.24 48.213333L512 662.613333z" p-id="3777" data-spm-anchor-id="a313x.search_index.0.i9.3ddb3a81ucOHa9" class="selected" fill="#e7c5fa"></path></svg>